# xmcd CD database file
#
# Track frame offsets:
#	150
#	24415
#	36192
#	53105
#	58389
#
# Disc length: 1087 seconds
#
# Revision: 0
# Processed by: cddbd v1.5PL3 Copyright (c) Steve Scherf et al.
# Submitted via: CDex 1.51
#
DISCID=3f043d05
DTITLE=葛城　哲哉 - Tetsuya Katsuragi's La Siesta -Kg-VIII-
DYEAR=2003
DGENRE=Hard Rock
TTITLE0=Bird In The Rain
TTITLE1=O Astronauta
TTITLE2=Solo〜ギタリストを撃つな！〜
TTITLE3=Connected Flower
TTITLE4=Bird In The Rain -Riplies-
EXTD=YEAR: 2003
EXTT0=
EXTT1=
EXTT2=
EXTT3=
EXTT4=
PLAYORDER=
